<?xml version="1.0" standalone="no"?>
<!DOCTYPE svg PUBLIC "-//W3C//DTD SVG 20010904//EN"
 "http://www.w3.org/TR/2001/REC-SVG-20010904/DTD/svg10.dtd">
<svg version="1.0" xmlns="http://www.w3.org/2000/svg"
 width="512.000000pt" height="512.000000pt" viewBox="0 0 512.000000 512.000000"
 preserveAspectRatio="xMidYMid meet">
<metadata>
Created by potrace 1.14, written by Peter Selinger 2001-2017
</metadata>
<g transform="translate(0.000000,512.000000) scale(0.100000,-0.100000)"
fill="#000000" stroke="none">
<path d="M2010 3936 c-30 -6 -71 -21 -90 -33 -66 -41 -73 -52 -267 -393 -11
-19 -87 -150 -168 -290 -81 -140 -157 -273 -169 -295 -12 -22 -110 -193 -218
-380 -108 -187 -204 -354 -214 -372 -11 -18 -52 -89 -91 -158 -40 -69 -73
-130 -73 -136 0 -5 -4 -9 -10 -9 -5 0 -10 -4 -10 -9 0 -4 -30 -59 -66 -122
-112 -194 -118 -206 -118 -284 -1 -116 54 -204 159 -255 l50 -25 545 0 c300 0
568 2 595 6 112 15 139 21 212 46 187 63 346 188 473 374 33 48 60 90 60 93 0
3 27 51 60 107 33 55 60 102 60 104 0 2 29 52 64 112 34 59 161 279 281 488
120 209 223 386 229 392 9 10 16 5 31 -24 21 -40 24 -45 290 -508 95 -165 225
-392 290 -505 64 -113 121 -209 126 -214 32 -35 18 -36 -487 -38 l-496 -3
-123 -212 c-71 -122 -118 -213 -111 -216 21 -7 1551 -1 1576 7 121 37 195 126
205 243 5 54 -13 140 -35 168 -5 6 -43 71 -85 145 -43 74 -85 149 -95 165
-103 179 -328 570 -348 605 -13 25 -40 72 -60 105 -19 33 -43 75 -53 93 -11
18 -80 139 -156 270 -75 130 -144 251 -153 267 -9 17 -31 55 -49 87 -68 120
-146 171 -261 172 -113 0 -195 -55 -263 -176 -108 -194 -233 -408 -237 -408
-3 0 -26 38 -51 83 -26 45 -106 186 -179 312 -73 127 -144 250 -158 275 -14
25 -45 78 -69 118 -24 41 -43 77 -43 81 0 15 -72 90 -106 112 -57 35 -129 48
-194 35z m240 -918 c200 -347 219 -380 273 -477 l35 -63 -29 -50 c-16 -27 -29
-51 -29 -54 0 -3 -16 -30 -35 -60 -19 -30 -35 -56 -35 -58 0 -3 -21 -40 -46
-83 -26 -43 -56 -94 -67 -113 -117 -207 -142 -246 -203 -306 -51 -50 -116 -91
-185 -116 -62 -22 -76 -23 -466 -26 l-403 -3 192 333 c105 183 200 349 212
369 16 29 371 644 447 776 41 73 82 143 111 196 18 31 35 57 38 57 3 0 89
-145 190 -322z"/>
</g>
</svg>
